<svg width="4181" height="2890" viewBox="0 0 4181 2890" fill="none" xmlns="http://www.w3.org/2000/svg">
<g clip-path="url(#clip0)">
<path d="M128.88 1294.53C67.3292 1181.33 49.6463 1049.1 79.9113 923.997C165.946 569.437 409.427 -52.9962 1053.83 35.0487C1948.18 157.428 2208.33 188.023 2575.25 73.1222C2942.17 -41.7781 3576.72 -41.4382 3775.31 218.277C3895.69 375.671 4302.74 1081.73 4042.94 1326.49C3783.13 1571.25 4168.76 2055.32 4180.66 2312.32C4192.56 2569.32 3821.56 2602.63 3355 2610.45C2888.44 2618.27 178.188 2529.2 178.188 2529.2C178.188 2529.2 -169.35 1930.22 106.096 1716.4C276.464 1583.82 199.951 1425.41 128.88 1294.53Z" fill="url(#paint0_linear)"/>
<path d="M399.908 2249.09C340.398 2247.05 116.98 2277.64 103.718 2289.2C100.318 2292.26 51.3493 2437.76 266.605 2625.4C610.743 2925.91 1536.38 2936.11 1836.31 2821.89C2271.58 2656 2748.68 2967.05 3737.23 2848.07C4053.14 2809.99 4264.32 2326.26 4120.81 2263.37C4034.78 2225.97 3931.74 2325.24 3845.37 2281.72C3745.73 2231.41 3544.07 2200.14 3419.27 2238.55C3414.17 2239.91 3411.11 2245.35 3412.47 2250.45C3413.83 2255.21 3418.59 2258.27 3423.69 2257.25L3358.06 2278.32C3284.95 2332.71 3301.27 2260.31 3129.89 2251.13L2624.56 2238.55C2443.99 2243.99 1748.57 2274.58 1476.53 2263.71H1326.9C1226.93 2251.13 968.143 2245.35 958.621 2245.01L399.908 2249.09Z" fill="#BB86FC"/>
<path d="M605.639 1509.03H758.664C758.664 1509.03 806.272 1515.83 809.673 1549.82C813.073 1583.82 808.653 2026.08 808.653 2026.08L1115.72 2022.34C1115.72 2022.34 1146.33 2032.54 1146.33 2066.53C1146.33 2100.53 1122.53 2114.13 1122.53 2114.13L655.967 2112.09L605.639 1509.03Z" fill="#BAC6F2"/>
<path d="M605.642 1509.03C605.642 1509.03 561.434 1515.83 558.034 1583.82C554.633 1651.8 558.034 2110.73 558.034 2110.73L1024.25 2114.13C1031.05 2114.13 1037.51 2111.41 1041.93 2106.31C1048.74 2098.83 1057.92 2087.27 1057.92 2076.73C1057.92 2058.38 1051.12 2029.14 1013.71 2029.14C976.304 2029.14 660.051 2025.74 660.051 2025.74L653.25 1549.82C653.25 1550.16 653.25 1515.83 605.642 1509.03Z" fill="#B1C1F2"/>
<path d="M800.832 2113.11C800.832 2113.11 792.671 2151.53 819.875 2151.53H864.083C867.483 2151.53 882.106 2131.13 872.924 2114.13C863.743 2097.13 800.832 2113.11 800.832 2113.11Z" fill="#BAC6F2"/>
<path d="M819.879 2151.86L823.279 2535.65H853.885L855.585 2149.48L819.879 2151.86Z" fill="#E9EDFA"/>
<path d="M694.06 2528.85L986.509 2532.25V2559.44L694.06 2556.04V2528.85Z" fill="#E9EDFA"/>
<path d="M1272.16 2562.85L1258.55 1852.38H1329.97L1326.56 2562.85H1272.16Z" fill="white"/>
<path d="M2826.21 1855.78H2904.43L2877.22 2566.25L2826.21 2569.65V1855.78Z" fill="white"/>
<path d="M1204.14 1730L1207.54 1845.58L2938.43 1855.78L2940.47 1726.6L1204.14 1730Z" fill="#E9EDFA"/>
<path d="M1098.72 1665.4L3043.85 1672.2V1736.79L1102.12 1733.39L1098.72 1665.4Z" fill="#BAC6F2"/>
<path d="M3478.1 2269.83L3481.5 2558.78L3869.17 2551.98V2269.83H3478.1Z" fill="#E9EDFA"/>
<path d="M3784.15 2553.34L3784.49 2269.83H3759.67" fill="white"/>
<path d="M3578.76 2269.15C3578.76 2269.15 3569.58 2097.82 3650.51 2049.21C3731.45 2000.6 3662.07 1887.06 3678.4 1826.89C3694.72 1766.72 3770.89 1722.52 3770.89 1676.29C3770.89 1630.06 3764.09 1500.2 3851.83 1461.11C3939.56 1422.01 4009.27 1472.67 3981.73 1549.15C3954.18 1625.64 3933.1 1713.68 3902.84 1741.22C3872.57 1768.76 3884.47 1812.95 3888.89 1866.32C3893.31 1919.69 3851.83 2007.39 3828.7 2040.03C3805.58 2072.66 3828.7 2128.07 3821.9 2185.86C3821.9 2185.86 3809.32 2266.77 3796.4 2269.49C3783.48 2272.21 3578.76 2269.15 3578.76 2269.15Z" fill="#BAC6F2"/>
<path d="M3759.67 2274.59C3759.67 2274.59 3769.87 2193 3679.42 2169.89C3588.96 2146.77 3666.49 2092.72 3648.47 2064.16C3630.45 2035.61 3545.09 2014.53 3545.09 1992.78C3545.09 1971.02 3552.91 1909.15 3454.64 1890.45C3356.36 1871.76 3278.83 1895.89 3309.77 1932.27C3340.72 1968.64 3364.18 2010.45 3397.51 2023.71C3430.83 2036.97 3418.25 2057.7 3413.15 2083.2C3408.05 2108.7 3454.64 2150.51 3480.48 2165.81C3506.33 2181.1 3480.48 2207.62 3488.3 2235.15C3488.3 2235.15 3502.59 2273.57 3516.53 2274.93C3530.47 2276.29 3759.67 2274.59 3759.67 2274.59Z" fill="#BAC6F2"/>
<path d="M3684.18 2274.25C3684.18 2274.25 3677.04 2188.92 3739.95 2164.78C3802.86 2140.65 3749.13 2084.22 3761.37 2054.3C3773.61 2024.39 3833.46 2002.63 3833.46 1979.52C3833.46 1956.4 3828.02 1892.15 3896.37 1872.43C3964.72 1852.72 4018.79 1878.21 3997.03 1916.29C3975.27 1954.36 3959.28 1997.87 3935.82 2011.81C3912.35 2025.75 3921.54 2047.5 3924.94 2074.02C3928.34 2100.54 3896.03 2144.39 3878.01 2160.37C3859.99 2176.34 3878.01 2204.22 3872.57 2232.77C3872.57 2232.77 3862.71 2272.89 3852.84 2274.25C3842.98 2275.61 3684.18 2274.25 3684.18 2274.25Z" fill="#BAC6F2"/>
<path d="M1502.71 631.304L1505.09 1283.31L3319.29 1280.59V636.403L1502.71 631.304Z" fill="#BB86FC"/>
<path d="M1827.12 835.268V915.494L2570.15 912.094V835.268H1827.12Z" fill="#BAC6F2"/>
<path d="M1827.12 1058.61V1138.84L2570.15 1135.44V1058.61H1827.12Z" fill="#BAC6F2"/>
<path d="M1701.64 943.367C1732.45 943.367 1757.41 918.407 1757.41 887.617C1757.41 856.827 1732.45 831.866 1701.64 831.866C1670.84 831.866 1645.88 856.827 1645.88 887.617C1645.88 918.407 1670.84 943.367 1701.64 943.367Z" fill="#BAC6F2"/>
<path d="M1701.64 1151.76C1732.45 1151.76 1757.41 1126.8 1757.41 1096.01C1757.41 1065.22 1732.45 1040.26 1701.64 1040.26C1670.84 1040.26 1645.88 1065.22 1645.88 1096.01C1645.88 1126.8 1670.84 1151.76 1701.64 1151.76Z" fill="#BAC6F2"/>
<path d="M3214.22 922.971H2773.16V1138.15H3214.22V922.971Z" fill="#E9EDFA"/>
<path d="M2766.02 1127.97C2766.02 1127.97 2800.36 1052.84 2833.01 1061C2865.66 1069.16 2873.82 1103.49 2898.3 1088.87C2922.78 1074.25 2938.77 1015.1 2962.57 1005.59C2996.58 992.328 3007.8 1006.95 3053.71 1033.12C3099.61 1059.3 3119 1053.52 3137.7 1034.14C3155.04 1016.46 3187.01 968.533 3222.37 947.116" stroke="#BB86FC" stroke-width="0.679301" stroke-linecap="round" stroke-linejoin="round"/>
<path d="M1361.25 639.807H704.936V1263.6H1361.25V639.807Z" fill="#FFB8B8"/>
<path d="M1024.59 1187.11C1118.31 1187.11 1194.28 1111.16 1194.28 1017.48C1194.28 923.794 1118.31 847.848 1024.59 847.848C930.874 847.848 854.902 923.794 854.902 1017.48C854.902 1111.16 930.874 1187.11 1024.59 1187.11Z" stroke="#BB86FC" stroke-width="12" stroke-linecap="round" stroke-linejoin="round"/>
<path d="M915.088 693.848H748.12V733.281H915.088V693.848Z" fill="#3700B3"/>
<path d="M915.088 755.718H748.12V795.151H915.088V755.718Z" fill="#BAC6F2"/>
<path d="M1236.1 1564.1H1754.01C1754.01 1564.1 1773.39 1563.08 1773.39 1540.65V1496.11H1215.7V1550.16C1218.42 1558.66 1226.58 1564.44 1236.1 1564.1Z" fill="#BAC5F4"/>
<path d="M1215.7 1159.57L1215.36 1513.11L1773.4 1508.01V1149.37C1773.4 1149.37 1776.8 1128.97 1755.03 1128.97H1236.79C1236.79 1128.97 1213.32 1128.97 1215.7 1159.57Z" fill="#BAC5F4"/>
<path d="M1450.34 1658.94V1560.7L1531.95 1564.1V1650.44L1450.34 1658.94Z" fill="#BAC5F4"/>
<path d="M1320.78 1649.09H1659.82L1660.16 1666.08H1320.78V1649.09Z" fill="#BAC5F4"/>
<path d="M1489.45 1520.25C1498.63 1520.25 1505.77 1527.38 1505.77 1536.56C1505.77 1545.74 1498.63 1552.88 1489.45 1552.88C1480.27 1552.88 1473.12 1545.74 1473.12 1536.56C1473.12 1527.38 1480.61 1520.25 1489.45 1520.25Z" fill="white"/>
<path d="M1756.39 1145.96H1232.7V1489.31H1756.39V1145.96Z" fill="#F8F8FF"/>
<path d="M1258.89 1163.65C1263.31 1163.65 1267.05 1167.39 1267.05 1171.81C1267.05 1176.22 1263.31 1179.96 1258.89 1179.96C1254.47 1179.96 1250.73 1176.22 1250.73 1171.81C1250.73 1167.39 1254.47 1163.65 1258.89 1163.65Z" fill="#FA5F5D"/>
<path d="M1286.77 1163.65C1291.19 1163.65 1294.93 1167.39 1294.93 1171.81C1294.93 1176.22 1291.19 1179.96 1286.77 1179.96C1282.35 1179.96 1278.61 1176.22 1278.61 1171.81C1278.61 1167.39 1282.35 1163.65 1286.77 1163.65Z" fill="#FDBC4E"/>
<path d="M1316.02 1163.65C1320.44 1163.65 1324.18 1167.39 1324.18 1171.81C1324.18 1176.22 1320.44 1179.96 1316.02 1179.96C1311.6 1179.96 1307.86 1176.22 1307.86 1171.81C1307.86 1167.39 1311.6 1163.65 1316.02 1163.65Z" fill="#37CD58"/>
<path d="M1429.94 1223.48C1429.6 1227.9 1425.86 1231.3 1421.44 1230.96H1321.12C1316.02 1230.96 1310.92 1227.56 1310.92 1223.48V1208.18C1310.92 1204.1 1315.68 1200.37 1321.12 1200.37H1421.1C1425.52 1200.03 1429.6 1203.42 1429.94 1207.84V1208.18V1223.48Z" fill="url(#paint1_linear)"/>
<path d="M1671.38 1324.78C1671.04 1329.54 1666.96 1333.28 1662.2 1332.94H1321.12C1316.02 1332.94 1310.92 1329.2 1310.92 1324.78V1249.31C1310.92 1244.89 1316.02 1241.15 1321.12 1241.15H1662.2C1666.96 1240.81 1671.04 1244.55 1671.38 1249.31V1324.78Z" fill="url(#paint2_linear)"/>
<path d="M1423.14 1389.36C1423.14 1393.78 1419.4 1397.52 1414.98 1397.52H1321.12C1315.68 1397.52 1310.92 1393.78 1310.92 1389.36V1347.89C1310.92 1343.47 1316.02 1339.73 1321.12 1339.73H1414.3C1418.72 1339.39 1422.8 1342.79 1423.14 1347.55V1347.89V1389.36Z" fill="url(#paint3_linear)"/>
<path d="M1545.55 1389.36C1545.55 1393.78 1541.81 1397.52 1537.39 1397.52H1443.54C1438.1 1397.52 1433.34 1393.78 1433.34 1389.36V1347.89C1433.34 1343.47 1438.44 1339.73 1443.54 1339.73H1536.71C1541.13 1339.39 1545.21 1342.79 1545.55 1347.55V1347.89V1389.36Z" fill="url(#paint4_linear)"/>
<path d="M1671.38 1389.36C1671.04 1394.12 1666.96 1397.86 1662.2 1397.52H1569.02C1563.92 1397.86 1559.84 1394.12 1559.16 1389.36V1347.89C1559.5 1342.79 1563.92 1339.39 1569.02 1339.73H1662.2C1666.96 1339.39 1671.38 1343.13 1671.72 1347.89L1671.38 1389.36Z" fill="url(#paint5_linear)"/>
<path d="M1545.55 1412.82C1544.87 1414.52 1543.51 1415.54 1541.81 1415.88C1541.47 1415.88 1541.47 1415.88 1541.13 1414.52H1438.44C1436.4 1415.88 1433.34 1414.52 1433.34 1412.82V1411.46C1433.34 1409.76 1436.4 1408.06 1438.44 1407.72H1541.13C1542.83 1408.06 1543.85 1409.42 1544.19 1410.78C1544.19 1411.12 1544.19 1411.12 1545.21 1411.46L1545.55 1412.82Z" fill="#E9EDFB"/>
<path d="M1545.55 1426.09C1544.87 1427.79 1543.51 1429.15 1541.81 1429.49C1541.81 1429.49 1541.47 1429.49 1541.47 1428.13H1438.44C1436.4 1429.49 1433.34 1428.13 1433.34 1426.09V1424.73C1433.34 1423.03 1436.4 1421.67 1438.44 1421.33H1541.13C1542.83 1421.67 1544.53 1423.03 1545.21 1424.73L1545.55 1426.09Z" fill="#E9EDFB"/>
<path d="M1545.55 1439.68C1544.87 1441.72 1543.17 1443.08 1541.47 1443.42C1541.47 1442.74 1541.47 1442.4 1541.47 1441.72H1438.44C1436.74 1442.74 1434.7 1442.4 1433.68 1440.7C1433.34 1440.36 1433.34 1440.02 1433.34 1439.68V1438.32C1433.34 1436.62 1436.4 1435.6 1438.44 1434.92H1541.13C1542.83 1435.26 1544.53 1436.62 1545.21 1438.32L1545.55 1439.68Z" fill="#E9EDFB"/>
<path d="M1545.55 1452.93C1544.53 1454.97 1543.17 1457.01 1541.47 1458.71H1438.44C1436.4 1457.01 1433.34 1454.97 1433.34 1452.93V1451.57C1433.34 1449.87 1436.4 1447.83 1438.44 1448.51H1541.13C1542.49 1448.17 1543.85 1449.19 1544.19 1450.55C1544.19 1450.89 1544.19 1451.23 1544.19 1451.57C1544.19 1451.57 1544.19 1451.57 1545.21 1451.91L1545.55 1452.93Z" fill="#E9EDFB"/>
<path d="M1488.42 1466.53C1488.42 1468.23 1487.4 1468.91 1485.36 1468.91H1438.1C1436.06 1468.91 1433.34 1468.23 1433.34 1466.53V1465.17C1433.34 1463.47 1436.06 1462.12 1438.1 1462.12H1485.36C1487.06 1462.12 1488.42 1463.47 1488.42 1465.17V1466.53Z" fill="#E9EDFB"/>
<path d="M1671.38 1412.82C1669.34 1414.52 1669.68 1415.88 1667.64 1414.52H1564.94C1563.24 1415.88 1561.54 1414.86 1561.54 1413.16C1561.54 1413.16 1561.54 1413.16 1562.56 1412.82V1411.46C1561.54 1409.76 1562.9 1408.06 1564.94 1407.72H1667.64C1669.68 1408.4 1669.34 1409.76 1671.38 1411.46V1412.82Z" fill="#E9EDFB"/>
<path d="M1671.38 1426.09C1669.34 1427.79 1669.68 1429.49 1667.64 1428.13H1564.94C1562.9 1429.49 1561.54 1428.13 1562.56 1426.09V1424.73C1561.54 1423.03 1562.9 1421.67 1564.94 1421.33H1667.64C1669.68 1422.01 1669.34 1423.03 1671.38 1424.73V1426.09Z" fill="#E9EDFB"/>
<path d="M1671.38 1439.68C1669.34 1441.38 1669.68 1443.42 1667.64 1441.72H1564.94C1562.9 1443.08 1561.54 1441.72 1562.56 1439.68V1438.32C1561.54 1436.62 1562.9 1435.6 1564.94 1434.92H1667.64C1669.68 1435.6 1669.34 1436.62 1671.38 1438.32V1439.68Z" fill="#E9EDFB"/>
<path d="M1671.38 1452.94C1669.34 1454.64 1669.68 1457.02 1667.64 1458.72H1564.94C1562.9 1456.68 1561.54 1454.98 1562.56 1452.94V1451.58C1561.88 1450.9 1561.88 1449.54 1562.56 1448.86C1563.24 1448.52 1563.92 1448.18 1564.6 1448.52H1667.64C1669.68 1447.84 1669.34 1449.88 1671.38 1451.58V1452.94V1452.94Z" fill="#E9EDFB"/>
<path d="M1614.93 1466.53C1614.93 1468.23 1614.93 1468.91 1613.23 1468.91H1565.62C1563.58 1468.91 1562.56 1468.23 1562.56 1466.53V1465.17C1562.56 1463.47 1563.92 1462.12 1565.62 1462.12H1612.89C1614.93 1462.12 1614.59 1463.47 1614.59 1465.17L1614.93 1466.53Z" fill="#E9EDFB"/>
<path d="M1419.74 1412.82C1421.1 1414.52 1420.42 1415.88 1418.38 1414.52H1315.34C1313.98 1415.54 1312.28 1415.2 1311.6 1414.18C1311.26 1413.84 1311.26 1413.5 1310.92 1412.82V1411.46C1311.6 1409.42 1313.3 1408.06 1315.34 1407.72H1418.04C1420.08 1408.4 1420.76 1409.76 1419.4 1411.46L1419.74 1412.82Z" fill="#E9EDFB"/>
<path d="M1419.74 1426.09C1421.1 1427.79 1420.42 1429.49 1418.38 1428.13H1315.34C1313.3 1429.83 1311.6 1428.13 1310.92 1426.09V1424.73C1311.26 1423.03 1313.3 1421.67 1315.34 1421.33H1418.04C1420.08 1422.01 1420.76 1423.03 1419.4 1424.73L1419.74 1426.09Z" fill="#E9EDFB"/>
<path d="M1419.74 1439.68C1421.1 1441.38 1420.42 1443.42 1418.38 1441.72H1315.34C1313.3 1443.42 1311.6 1441.72 1310.92 1439.68V1438.32C1311.26 1436.62 1313.3 1435.6 1315.34 1434.92H1418.04C1420.08 1435.6 1420.76 1436.62 1419.4 1438.32L1419.74 1439.68Z" fill="#E9EDFB"/>
<path d="M1389.13 1448.51H1418.38C1420.42 1447.83 1421.1 1449.87 1419.74 1451.57V1452.93C1421.1 1454.63 1420.42 1457.01 1418.38 1458.71H1315.34C1313.3 1457.35 1311.94 1455.31 1310.92 1452.93V1451.57C1311.26 1449.53 1313.3 1448.17 1315.34 1448.51H1389.13Z" fill="#E9EDFB"/>
<path d="M1368.73 1466.53C1368.73 1468.23 1367.71 1468.91 1365.67 1468.91H1314.66C1312.62 1468.91 1310.92 1468.23 1310.92 1466.53V1465.17C1311.26 1463.47 1312.96 1462.12 1314.66 1462.12H1365.67C1367.37 1462.12 1368.73 1463.47 1368.73 1464.83C1368.73 1464.83 1368.73 1464.83 1368.73 1465.17V1466.53Z" fill="#E9EDFB"/>
<path d="M283.267 2551.3C283.267 2551.3 313.192 2388.81 155.405 2301.78C-2.04093 2214.75 -9.52218 2215.77 -40.8074 2205.92C-58.8304 2199.8 -77.1935 2212.72 -56.45 2238.55C-35.7066 2264.73 -47.6086 2271.19 -6.12161 2282.74C35.3653 2294.3 41.4864 2344.61 62.2298 2357.19C82.9733 2369.77 100.996 2373.17 164.247 2400.36C221.717 2425.18 270.685 2495.21 270.685 2519.68C270.685 2544.16 326.794 2552.66 326.794 2552.66L283.267 2551.3Z" fill="url(#paint6_linear)"/>
<path d="M277.825 2528.52C277.825 2528.52 317.952 2378.94 179.889 2298.04C41.8259 2217.13 -6.12213 2218.15 -33.6667 2208.29C-49.3094 2202.51 -6.46219 2222.23 11.5608 2246.02C29.5838 2270.16 25.1631 2264.72 57.4685 2282.4C94.8748 2303.13 110.517 2323.19 132.621 2327.27C164.586 2333.39 155.065 2366.7 210.494 2391.52C260.483 2414.3 266.944 2475.14 266.944 2497.92C266.944 2521.04 315.912 2528.52 315.912 2528.52H277.825Z" fill="url(#paint7_linear)"/>
<path d="M416.571 2506.42L432.213 2491.46C439.695 2484.66 448.876 2479.56 458.738 2476.84C507.366 2463.93 660.732 2415.99 724.322 2300.07C725.002 2299.05 724.322 2297.69 723.302 2297.35H722.962C722.622 2297.35 722.282 2297.01 722.282 2297.01C701.198 2295.31 592.04 2293.61 446.156 2418.03C443.435 2420.07 441.055 2422.79 439.015 2425.17C435.274 2430.27 429.153 2439.11 426.433 2443.53C422.692 2450.33 430.173 2461.55 419.971 2471.4C409.77 2481.26 387.666 2506.08 387.666 2506.08L405.689 2519.34L416.571 2506.42Z" fill="url(#paint8_linear)"/>
<path d="M333.592 2496.9C333.592 2496.9 375.419 2122.62 261.16 2005C156.082 1896.9 154.382 1996.16 154.722 2013.16C154.722 2014.86 155.402 2015.88 155.742 2017.24C180.566 2063.47 189.068 2116.84 180.226 2168.51C169.344 2222.56 246.877 2215.43 253.678 2268.8C260.48 2322.17 287.344 2404.43 284.624 2442.17C281.903 2479.9 281.563 2516.61 281.563 2516.61L323.73 2517.97L333.592 2496.9Z" fill="url(#paint9_linear)"/>
<path d="M333.255 2497.92C333.595 2497.24 333.935 2496.22 333.935 2495.2C336.655 2470.73 371.681 2118.21 261.503 2004.67C157.105 1896.91 155.405 1994.47 156.085 2012.15C156.425 2014.19 157.445 2016.22 158.465 2017.92C166.287 2029.14 200.632 2078.09 231.237 2072.66C315.912 2057.7 241.099 2159.34 287.007 2213.73C323.733 2256.56 311.491 2404.78 308.77 2442.85C307.07 2464.27 303.33 2485.34 297.889 2506.08C296.868 2511.52 300.609 2516.62 305.71 2517.64C306.05 2517.64 306.39 2517.64 306.39 2517.64C307.07 2517.64 307.75 2517.98 308.43 2517.98H316.252C321.013 2518.32 325.093 2515.94 327.134 2511.86L333.255 2497.92Z" fill="url(#paint10_linear)"/>
<path d="M374.401 2519.68C374.401 2519.68 381.882 2416 442.412 2352.77C459.415 2335.44 480.839 2323.54 504.303 2318.1C522.326 2314.02 551.911 2299.4 577.755 2250.79C577.755 2250.79 626.383 2181.78 675.351 2161.05C723.979 2139.97 675.351 2137.59 675.351 2137.59C675.351 2137.59 535.928 2164.11 446.493 2245.69C440.712 2250.79 434.931 2255.55 428.47 2259.63C405.346 2275.61 341.075 2335.1 343.796 2509.49L374.401 2519.68Z" fill="url(#paint11_linear)"/>
<path d="M495.464 2511.53C495.464 2511.53 497.505 2498.95 480.842 2499.29C466.219 2499.97 220.018 2497.93 220.018 2497.93C220.018 2497.93 208.456 2497.93 209.136 2506.77C209.816 2515.6 247.223 2720.59 250.623 2724.67C252.324 2727.39 254.704 2729.43 257.764 2730.11C262.525 2731.47 435.274 2730.45 435.274 2730.45C439.355 2729.77 442.415 2726.71 442.755 2722.63C442.755 2722.63 495.804 2513.9 495.464 2511.53Z" fill="url(#paint12_linear)"/>
<path d="M3010.19 2701.56C3001 2662.8 2997.94 2613.17 2991.82 2612.15H2985.02L2920.07 2612.83C2920.07 2612.83 2906.47 2674.7 2899.67 2700.54C2898.99 2702.24 2897.97 2706.66 2896.61 2709.72C2895.25 2714.13 2895.25 2718.89 2895.25 2723.31C2896.61 2746.77 2905.79 2766.83 2926.53 2777.36C2950 2788.92 2967.68 2800.14 2991.48 2777.36C3015.63 2754.25 3019.37 2740.31 3010.19 2701.56Z" fill="#4B44BE"/>
<path d="M2804.45 2618.27L2722.16 2622.68C2722.16 2622.68 2689.51 2679.12 2641.91 2692.71C2597.02 2705.63 2522.89 2736.91 2555.87 2754.58C2580.35 2768.86 2738.82 2755.94 2777.25 2759C2806.15 2761.38 2813.97 2743.7 2810.91 2704.95C2808.87 2675.72 2804.45 2618.27 2804.45 2618.27Z" fill="#4B44BE"/>
<path d="M2705.84 1591.31C2705.84 1591.31 2650.75 2045.13 2647.01 2074.7C2643.27 2104.28 2666.05 2255.55 2666.05 2284.45C2666.05 2313.34 2720.12 2623.03 2720.12 2623.03L2806.15 2619.29C2806.15 2619.29 2788.81 2163.43 2790.85 2141.33C2792.55 2119.24 2886.75 1854.76 2886.75 1854.76C2886.75 1854.76 2893.55 1924.79 2893.55 1946.89C2893.55 1968.98 2919.39 2613.85 2919.39 2613.85H2994.21L3100.3 1664.05L3098.6 1645.7L2705.84 1591.31Z" fill="url(#paint13_linear)"/>
<path d="M2958.5 714.593C2958.5 714.593 2876.21 746.547 2857.84 753.686C2839.48 761.165 2828.94 783.601 2828.94 783.601C2828.94 783.601 2819.76 778.162 2819.76 793.459C2819.76 808.757 2827.24 843.771 2833.36 852.949C2843.22 868.247 2851.72 883.544 2859.88 899.521C2867.36 915.498 2864.64 948.473 2856.82 953.572C2849 958.331 2710.26 1083.77 2710.26 1083.77L2594.64 1439.01L2609.94 1551.19L2633.4 1661.67C2633.4 1661.67 2628.64 1669.49 2638.17 1679.01C2648.03 1688.19 2689.85 1756.85 2689.85 1756.85L2704.14 1655.55L2656.87 1505.3L2640.21 1378.84L2750.72 1153.12L3133.63 1221.11L3175.46 1467.22L3097.92 1676.97L3084.32 1779.29L3149.27 1722.18C3153.01 1719.12 3160.15 1703.14 3163.89 1694.65L3202.66 1585.52L3231.56 1411.13C3231.56 1411.13 2989.78 975.668 2977.54 949.833C2972.1 938.275 2978.22 910.059 2981.28 895.782C2984.34 882.864 2990.46 866.207 2996.59 861.448C3005.77 851.589 3010.19 837.652 3012.57 824.734C3012.57 815.556 3016.31 779.862 3007.13 788.7C3005.43 791.08 2998.63 780.202 2995.57 765.924C2989.78 745.188 2975.16 727.851 2958.5 714.593Z" fill="url(#paint14_linear)"/>
<path d="M2927.21 1069.83C2921.09 1075.27 2911.91 1074.59 2906.47 1069.15C2902.05 1062.36 2897.97 1055.56 2894.9 1048.76C2888.78 1036.52 2841.52 967.172 2841.52 967.172C2841.52 967.172 2729.3 996.067 2711.27 1007.62C2692.91 1019.86 2676.25 1036.52 2670.13 1057.94C2664.01 1079.35 2577.29 1331.59 2573.21 1346.89C2568.79 1362.18 2546.69 1386.66 2557.23 1448.87C2567.77 1511.08 2625.92 1669.83 2632.04 1671.53C2638.16 1673.23 2700.05 1642.64 2700.05 1642.64C2700.05 1642.64 2651.08 1445.13 2651.08 1425.41C2651.08 1405.7 2695.29 1349.95 2712.97 1311.87C2730.66 1273.8 2743.58 1240.83 2749.7 1224.17C2755.82 1207.51 2696.99 1552.55 2696.99 1552.55C2696.99 1552.55 2695.63 1615.1 2707.53 1621.22C2718.42 1626.66 2850.36 1676.97 2881.3 1688.87C2884.36 1690.23 2888.1 1688.19 2889.8 1685.13L2909.53 1629.38C2909.53 1628.7 2910.21 1628.02 2910.89 1628.7C2911.57 1628.7 2911.57 1629.38 2911.57 1629.38L2929.93 1690.23C2930.61 1693.29 2934.35 1694.99 2937.41 1694.65L3099.96 1659.63C3099.96 1659.63 3097.58 1359.8 3100.64 1309.49C3103.02 1260.54 3096.9 1232.67 3106.08 1246.26C3115.94 1260.88 3157.09 1395.84 3157.09 1418.61C3157.09 1441.39 3111.18 1640.6 3111.18 1640.6L3172.05 1674.25C3172.05 1674.25 3254.34 1455.33 3258.43 1426.43C3262.85 1397.54 3264.55 1382.24 3250.94 1353.35C3237.34 1324.45 3162.53 1062.7 3162.53 1062.7C3162.53 1062.7 3155.05 1030.74 3099.96 1014.08C3044.87 997.427 3003.72 972.951 2993.86 973.631C2984 974.311 2953.39 1031.76 2939.79 1049.1C2933.33 1055.56 2934.69 1058.62 2927.21 1069.83Z" fill="url(#paint15_linear)"/>
<path d="M2957.82 714.931C2957.82 714.931 2864.98 748.585 2846.28 762.862C2832 773.401 2828.94 783.259 2828.94 783.259C2828.94 783.259 2819.08 778.84 2819.76 793.117C2820.44 807.395 2808.87 771.021 2805.47 759.463C2803.09 747.905 2802.41 715.27 2827.58 691.474C2852.74 667.679 2880.29 649.662 2903.75 651.021C2927.21 652.381 2946.26 658.84 2964.62 676.857C2982.98 694.534 2987.4 693.514 2991.14 695.214C2994.88 696.914 3013.93 717.31 3016.31 739.406C3018.69 761.503 3011.89 794.137 3011.89 794.137C3011.89 794.137 3007.47 789.378 3002.71 792.777C2997.95 796.177 2996.58 772.041 2980.6 741.786C2969.04 719.35 2957.82 714.931 2957.82 714.931Z" fill="url(#paint16_linear)"/>
<path opacity="0.07" d="M2898.99 1808.19C2888.44 1838.78 2847.3 1898.95 2820.43 1935.32C2793.57 1971.36 2710.59 2047.51 2716.03 2140.31C2721.48 2233.11 2777.25 2471.75 2777.25 2493.17C2777.25 2514.59 2756.5 2615.89 2740.52 2647.16C2724.54 2678.44 2717.06 2734.19 2725.22 2734.19C2739.84 2733.51 2755.14 2731.81 2770.1 2728.07C2783.71 2725.01 2796.97 2721.95 2809.89 2717.53C2815.33 2715.15 2816.69 2697.13 2816.69 2697.13C2817.37 2689.66 2816.01 2681.84 2814.31 2675.04C2810.57 2663.48 2807.51 2651.58 2805.81 2640.02C2802.75 2553 2794.93 2351.07 2796.63 2336.8C2799.69 2310.28 2778.27 2177.36 2797.99 2111.75C2817.37 2046.49 2898.99 1808.19 2898.99 1808.19Z" fill="black"/>
<path opacity="0.07" d="M2700.05 1642.63L2685.77 1751.76C2685.77 1751.76 2700.05 1774.53 2704.14 1755.5C2708.56 1736.46 2737.8 1700.76 2719.44 1675.27C2701.07 1649.77 2700.05 1642.63 2700.05 1642.63Z" fill="black"/>
<path opacity="0.07" d="M3098.94 1672.88L3094.18 1724.89L3088.06 1775.2C3088.06 1775.2 3067.32 1790.5 3067.66 1770.78C3068.34 1751.07 3032.63 1721.83 3059.83 1702.12C3087.04 1682.4 3098.94 1672.88 3098.94 1672.88Z" fill="black"/>
<path opacity="0.07" d="M2840.84 967.849C2844.58 967.169 2823.16 972.608 2842.2 966.489C2874.85 955.951 2861.24 894.762 2861.24 894.762C2861.24 894.762 2864.3 917.538 2894.91 926.716C2925.51 935.895 2933.68 929.096 2887.43 950.512C2841.52 971.929 2865.32 979.407 2868.39 1007.62" fill="black"/>
<path opacity="0.07" d="M2748.68 1245.24L2696.99 1557.98C2696.99 1557.98 2697.67 1613.73 2707.53 1621.89C2717.4 1629.71 2750.38 1635.49 2757.86 1640.93C2765.34 1646.37 2844.92 1672.88 2824.17 1628.01C2819.41 1618.15 2711.95 1557.98 2759.9 1494.75C2807.85 1431.52 2799.01 1344.5 2776.57 1283.65C2762.96 1247.96 2756.16 1209.88 2758.2 1172.15L2748.68 1245.24Z" fill="black"/>
</g>
<defs>
<linearGradient id="paint0_linear" x1="2090.43" y1="-0.21875" x2="2090.43" y2="2610.94" gradientUnits="userSpaceOnUse">
<stop stop-color="#8C02B6"/>
<stop offset="1" stop-color="#C908AA"/>
</linearGradient>
<linearGradient id="paint1_linear" x1="1310.83" y1="1215.6" x2="1429.85" y2="1215.6" gradientUnits="userSpaceOnUse">
<stop stop-color="#F71D69"/>
<stop offset="1" stop-color="#F8C648"/>
</linearGradient>
<linearGradient id="paint2_linear" x1="1310.83" y1="1286.98" x2="1671.3" y2="1286.98" gradientUnits="userSpaceOnUse">
<stop stop-color="#E5A4ED"/>
<stop offset="1" stop-color="#7A5BF5"/>
</linearGradient>
<linearGradient id="paint3_linear" x1="1310.83" y1="1368.56" x2="1423.05" y2="1368.56" gradientUnits="userSpaceOnUse">
<stop stop-color="#E5A4ED"/>
<stop offset="1" stop-color="#7A5BF5"/>
</linearGradient>
<linearGradient id="paint4_linear" x1="1433.25" y1="1368.56" x2="1545.47" y2="1368.56" gradientUnits="userSpaceOnUse">
<stop stop-color="#E5A4ED"/>
<stop offset="1" stop-color="#7A5BF5"/>
</linearGradient>
<linearGradient id="paint5_linear" x1="1559.08" y1="1368.57" x2="1671.3" y2="1368.57" gradientUnits="userSpaceOnUse">
<stop stop-color="#E5A4ED"/>
<stop offset="1" stop-color="#7A5BF5"/>
</linearGradient>
<linearGradient id="paint6_linear" x1="-65.1834" y1="2378.23" x2="327.567" y2="2378.23" gradientUnits="userSpaceOnUse">
<stop stop-color="#93FD93"/>
<stop offset="0.51" stop-color="#21C2C1"/>
<stop offset="1" stop-color="#84F599"/>
</linearGradient>
<linearGradient id="paint7_linear" x1="81.9761" y1="2254.23" x2="305.045" y2="2527.81" gradientUnits="userSpaceOnUse">
<stop stop-color="#93FD93"/>
<stop offset="0.51" stop-color="#21C2C1"/>
<stop offset="1" stop-color="#84F599"/>
</linearGradient>
<linearGradient id="paint8_linear" x1="338.944" y1="2563.5" x2="645.666" y2="2326.1" gradientUnits="userSpaceOnUse">
<stop stop-color="#93FD93"/>
<stop offset="0.51" stop-color="#21C2C1"/>
<stop offset="1" stop-color="#84F599"/>
</linearGradient>
<linearGradient id="paint9_linear" x1="416.066" y1="2442.98" x2="152.664" y2="2109.42" gradientUnits="userSpaceOnUse">
<stop stop-color="#93FD93"/>
<stop offset="0.51" stop-color="#21C2C1"/>
<stop offset="1" stop-color="#84F599"/>
</linearGradient>
<linearGradient id="paint10_linear" x1="155.895" y1="2236.33" x2="341.299" y2="2236.33" gradientUnits="userSpaceOnUse">
<stop stop-color="#93FD93"/>
<stop offset="0.51" stop-color="#21C2C1"/>
<stop offset="1" stop-color="#84F599"/>
</linearGradient>
<linearGradient id="paint11_linear" x1="325.406" y1="2539.15" x2="526.153" y2="2248.73" gradientUnits="userSpaceOnUse">
<stop stop-color="#93FD93"/>
<stop offset="0.51" stop-color="#21C2C1"/>
<stop offset="1" stop-color="#84F599"/>
</linearGradient>
<linearGradient id="paint12_linear" x1="209.625" y1="2614.19" x2="495.778" y2="2614.19" gradientUnits="userSpaceOnUse">
<stop stop-color="#E5A4ED"/>
<stop offset="1" stop-color="#7A5BF5"/>
</linearGradient>
<linearGradient id="paint13_linear" x1="2646.41" y1="2107.1" x2="3099.72" y2="2107.1" gradientUnits="userSpaceOnUse">
<stop stop-color="#7A5BF5"/>
<stop offset="1" stop-color="#3700B3"/>
</linearGradient>
<linearGradient id="paint14_linear" x1="2594.65" y1="1246.99" x2="3231.66" y2="1246.99" gradientUnits="userSpaceOnUse">
<stop stop-color="#F87B58"/>
<stop offset="0.41" stop-color="#F89453"/>
<stop offset="0.71" stop-color="#F8C548"/>
<stop offset="1" stop-color="#F89C51"/>
</linearGradient>
<linearGradient id="paint15_linear" x1="2554.44" y1="1330.79" x2="3262.26" y2="1330.79" gradientUnits="userSpaceOnUse">
<stop stop-color="#E5A4ED"/>
<stop offset="1" stop-color="#7A5BF5"/>
</linearGradient>
<linearGradient id="paint16_linear" x1="2804.64" y1="723.42" x2="3017.48" y2="723.42" gradientUnits="userSpaceOnUse">
<stop stop-color="#4B45BD"/>
<stop offset="1" stop-color="#58CAEA"/>
</linearGradient>
<clipPath id="clip0">
<rect width="4181" height="2889.23" fill="white"/>
</clipPath>
</defs>
</svg>
